# xmcd
#
# Track frame offsets: 
#        150
#        12421
#        28652
#        42379
#        59878
#        81176
#        96309
#        115267
#        136744
#        154246
#        174102
#        191172
#        211645
#        233362
#        248526
#
# Disc length: 3629 seconds
#
# Revision: 0
# Processed by: cddbd v1.5.2PL0 Copyright (c) Steve Scherf et al.
# Submitted via: ExactAudioCopy v0.99pb5
#
DISCID=bf0e2b0f
DTITLE=Hush and DR Underholdningsorkestret - Live i Koncertsalen
DYEAR=2012
DGENRE=Adult Contemporary
TTITLE0=Can I come home now
TTITLE1=Say a little prayer
TTITLE2=Do what you love to do
TTITLE3=Missing you
TTITLE4=Life is hell
TTITLE5=Look for America
TTITLE6=That don't make it right
TTITLE7=What if I told you
TTITLE8=Come to my rescue
TTITLE9=If you go breaking my heart
TTITLE10=For all the right reasons
TTITLE11=Drown
TTITLE12=Lovestruck
TTITLE13=Wilder girl
TTITLE14=A lifetime
EXTD=feat. DR Underholdningsorkestret
EXTT0=
EXTT1=
EXTT2=
EXTT3=
EXTT4=
EXTT5=
EXTT6=
EXTT7=
EXTT8=
EXTT9=
EXTT10=
EXTT11=
EXTT12=
EXTT13=
EXTT14=
PLAYORDER=
